<mxfile host="app.diagrams.net" modified="2023-05-10T19:49:43.125Z" agent="Mozilla/5.0 (Windows NT 10.0; Win64; x64) AppleWebKit/537.36 (KHTML, like Gecko) Chrome/113.0.0.0 Safari/537.36" etag="iF7DCT9OAEwrcZcdqGla" version="21.2.9" type="device">
  <diagram name="Page-1" id="TTzb4P__GFBli8QmLFVt">
    <mxGraphModel dx="2614" dy="2142" grid="1" gridSize="10" guides="1" tooltips="1" connect="1" arrows="1" fold="1" page="1" pageScale="1" pageWidth="850" pageHeight="1100" math="0" shadow="0">
      <root>
        <mxCell id="0" />
        <mxCell id="1" parent="0" />
        <mxCell id="FuZ4A8lElh-4JuRi-4fu-3" value="" style="shape=image;html=1;verticalAlign=top;verticalLabelPosition=bottom;labelBackgroundColor=#ffffff;imageAspect=0;aspect=fixed;image=https://cdn1.iconfinder.com/data/icons/unicons-line-vol-6/24/store-alt-128.png;strokeWidth=1;" vertex="1" parent="1">
          <mxGeometry x="380" y="-30" width="138" height="138" as="geometry" />
        </mxCell>
        <mxCell id="3YLsb2CkVtOYbldQvCIw-34" value="" style="rounded=0;whiteSpace=wrap;html=1;dashed=1;gradientColor=none;fillColor=none;strokeWidth=2;" parent="1" vertex="1">
          <mxGeometry x="-252.5" y="220" width="1375" height="510" as="geometry" />
        </mxCell>
        <mxCell id="3YLsb2CkVtOYbldQvCIw-1" value="&lt;font size=&quot;1&quot; style=&quot;&quot;&gt;&lt;b style=&quot;font-size: 20px;&quot;&gt;SHOPPING SERVICE&lt;/b&gt;&lt;/font&gt;" style="rounded=1;whiteSpace=wrap;html=1;fillColor=#f5f5f5;strokeColor=#666666;fontColor=#333333;" parent="1" vertex="1">
          <mxGeometry x="330" y="90" width="220" height="70" as="geometry" />
        </mxCell>
        <mxCell id="3YLsb2CkVtOYbldQvCIw-6" value="&lt;font style=&quot;font-size: 20px;&quot;&gt;&lt;b&gt;Product Catalog Service&lt;/b&gt;&lt;/font&gt;" style="rounded=0;whiteSpace=wrap;html=1;fillColor=#ffe6cc;strokeColor=#d79b00;" parent="1" vertex="1">
          <mxGeometry x="-200" y="370" width="210" height="100" as="geometry" />
        </mxCell>
        <mxCell id="3YLsb2CkVtOYbldQvCIw-7" value="&lt;font style=&quot;font-size: 20px;&quot;&gt;&lt;b&gt;Order Service&lt;/b&gt;&lt;/font&gt;" style="rounded=0;whiteSpace=wrap;html=1;fillColor=#ffe6cc;strokeColor=#d79b00;" parent="1" vertex="1">
          <mxGeometry x="330" y="370" width="210" height="100" as="geometry" />
        </mxCell>
        <mxCell id="3YLsb2CkVtOYbldQvCIw-8" value="&lt;font style=&quot;font-size: 20px;&quot;&gt;&lt;b&gt;Cart Service&lt;/b&gt;&lt;/font&gt;" style="rounded=0;whiteSpace=wrap;html=1;fillColor=#ffe6cc;strokeColor=#d79b00;" parent="1" vertex="1">
          <mxGeometry x="80" y="370" width="210" height="100" as="geometry" />
        </mxCell>
        <mxCell id="3YLsb2CkVtOYbldQvCIw-9" value="&lt;font style=&quot;font-size: 20px;&quot;&gt;&lt;b&gt;User Service&lt;/b&gt;&lt;/font&gt;" style="rounded=0;whiteSpace=wrap;html=1;fillColor=#ffe6cc;strokeColor=#d79b00;" parent="1" vertex="1">
          <mxGeometry x="590" y="370" width="210" height="100" as="geometry" />
        </mxCell>
        <mxCell id="3YLsb2CkVtOYbldQvCIw-10" value="&lt;font style=&quot;font-size: 20px;&quot;&gt;&lt;b&gt;Notification Service&lt;/b&gt;&lt;/font&gt;" style="rounded=0;whiteSpace=wrap;html=1;fillColor=#ffe6cc;strokeColor=#d79b00;" parent="1" vertex="1">
          <mxGeometry x="850" y="370" width="210" height="100" as="geometry" />
        </mxCell>
        <mxCell id="3YLsb2CkVtOYbldQvCIw-11" value="" style="endArrow=none;startArrow=classic;html=1;rounded=1;exitX=0.5;exitY=0;exitDx=0;exitDy=0;strokeWidth=2;endFill=0;" parent="1" source="3YLsb2CkVtOYbldQvCIw-6" edge="1">
          <mxGeometry width="50" height="50" relative="1" as="geometry">
            <mxPoint x="290" y="330" as="sourcePoint" />
            <mxPoint x="440" y="260" as="targetPoint" />
            <Array as="points">
              <mxPoint x="-95" y="260" />
              <mxPoint x="440" y="260" />
            </Array>
          </mxGeometry>
        </mxCell>
        <mxCell id="3YLsb2CkVtOYbldQvCIw-12" value="" style="endArrow=classic;html=1;rounded=1;entryX=0.5;entryY=0;entryDx=0;entryDy=0;strokeWidth=2;" parent="1" target="3YLsb2CkVtOYbldQvCIw-8" edge="1">
          <mxGeometry width="50" height="50" relative="1" as="geometry">
            <mxPoint x="185" y="260" as="sourcePoint" />
            <mxPoint x="340" y="280" as="targetPoint" />
          </mxGeometry>
        </mxCell>
        <mxCell id="3YLsb2CkVtOYbldQvCIw-13" value="" style="endArrow=classic;html=1;rounded=1;entryX=0.523;entryY=-0.012;entryDx=0;entryDy=0;entryPerimeter=0;strokeWidth=2;" parent="1" target="3YLsb2CkVtOYbldQvCIw-7" edge="1">
          <mxGeometry width="50" height="50" relative="1" as="geometry">
            <mxPoint x="440" y="260" as="sourcePoint" />
            <mxPoint x="580" y="290" as="targetPoint" />
          </mxGeometry>
        </mxCell>
        <mxCell id="3YLsb2CkVtOYbldQvCIw-14" value="" style="endArrow=classic;html=1;rounded=1;entryX=0.5;entryY=0;entryDx=0;entryDy=0;strokeWidth=2;" parent="1" target="3YLsb2CkVtOYbldQvCIw-10" edge="1">
          <mxGeometry width="50" height="50" relative="1" as="geometry">
            <mxPoint x="440" y="260" as="sourcePoint" />
            <mxPoint x="540" y="240" as="targetPoint" />
            <Array as="points">
              <mxPoint x="955" y="260" />
            </Array>
          </mxGeometry>
        </mxCell>
        <mxCell id="3YLsb2CkVtOYbldQvCIw-15" value="" style="endArrow=classic;html=1;rounded=1;entryX=0.5;entryY=0;entryDx=0;entryDy=0;strokeWidth=2;" parent="1" target="3YLsb2CkVtOYbldQvCIw-9" edge="1">
          <mxGeometry width="50" height="50" relative="1" as="geometry">
            <mxPoint x="695" y="260" as="sourcePoint" />
            <mxPoint x="540" y="240" as="targetPoint" />
          </mxGeometry>
        </mxCell>
        <mxCell id="3YLsb2CkVtOYbldQvCIw-16" value="" style="endArrow=classic;html=1;rounded=0;strokeWidth=2;" parent="1" edge="1">
          <mxGeometry width="50" height="50" relative="1" as="geometry">
            <mxPoint x="440" y="260" as="sourcePoint" />
            <mxPoint x="440" y="170" as="targetPoint" />
          </mxGeometry>
        </mxCell>
        <mxCell id="3YLsb2CkVtOYbldQvCIw-17" value="" style="endArrow=classic;html=1;exitX=0.75;exitY=1;exitDx=0;exitDy=0;entryX=0.25;entryY=1;entryDx=0;entryDy=0;rounded=1;" parent="1" source="3YLsb2CkVtOYbldQvCIw-6" target="3YLsb2CkVtOYbldQvCIw-8" edge="1">
          <mxGeometry width="50" height="50" relative="1" as="geometry">
            <mxPoint x="150" y="400" as="sourcePoint" />
            <mxPoint x="200" y="350" as="targetPoint" />
            <Array as="points">
              <mxPoint x="-42" y="520" />
              <mxPoint x="133" y="520" />
            </Array>
          </mxGeometry>
        </mxCell>
        <mxCell id="3YLsb2CkVtOYbldQvCIw-19" value="&lt;font style=&quot;font-size: 20px;&quot;&gt;Items&lt;/font&gt;" style="text;html=1;align=center;verticalAlign=middle;resizable=0;points=[];autosize=1;strokeColor=none;fillColor=none;" parent="1" vertex="1">
          <mxGeometry x="10" y="490" width="70" height="40" as="geometry" />
        </mxCell>
        <mxCell id="3YLsb2CkVtOYbldQvCIw-20" value="" style="endArrow=classic;html=1;rounded=1;entryX=0.5;entryY=1;entryDx=0;entryDy=0;exitX=0.5;exitY=1;exitDx=0;exitDy=0;" parent="1" source="3YLsb2CkVtOYbldQvCIw-9" target="3YLsb2CkVtOYbldQvCIw-8" edge="1">
          <mxGeometry width="50" height="50" relative="1" as="geometry">
            <mxPoint x="340" y="400" as="sourcePoint" />
            <mxPoint x="390" y="350" as="targetPoint" />
            <Array as="points">
              <mxPoint x="695" y="600" />
              <mxPoint x="430" y="600" />
              <mxPoint x="185" y="600" />
            </Array>
          </mxGeometry>
        </mxCell>
        <mxCell id="3YLsb2CkVtOYbldQvCIw-21" value="&lt;font style=&quot;font-size: 20px;&quot;&gt;User information&lt;/font&gt;" style="text;html=1;align=center;verticalAlign=middle;resizable=0;points=[];autosize=1;strokeColor=none;fillColor=none;" parent="1" vertex="1">
          <mxGeometry x="270" y="565" width="170" height="40" as="geometry" />
        </mxCell>
        <mxCell id="3YLsb2CkVtOYbldQvCIw-22" value="" style="endArrow=classic;html=1;rounded=1;exitX=0.75;exitY=1;exitDx=0;exitDy=0;entryX=0.25;entryY=1;entryDx=0;entryDy=0;" parent="1" source="3YLsb2CkVtOYbldQvCIw-8" target="3YLsb2CkVtOYbldQvCIw-7" edge="1">
          <mxGeometry width="50" height="50" relative="1" as="geometry">
            <mxPoint x="340" y="510" as="sourcePoint" />
            <mxPoint x="390" y="460" as="targetPoint" />
            <Array as="points">
              <mxPoint x="238" y="510" />
              <mxPoint x="383" y="510" />
            </Array>
          </mxGeometry>
        </mxCell>
        <mxCell id="3YLsb2CkVtOYbldQvCIw-23" value="" style="endArrow=classic;html=1;rounded=1;exitX=0.5;exitY=1;exitDx=0;exitDy=0;entryX=0.5;entryY=1;entryDx=0;entryDy=0;jumpStyle=arc;jumpSize=16;" parent="1" source="3YLsb2CkVtOYbldQvCIw-6" target="3YLsb2CkVtOYbldQvCIw-7" edge="1">
          <mxGeometry width="50" height="50" relative="1" as="geometry">
            <mxPoint x="340" y="510" as="sourcePoint" />
            <mxPoint x="390" y="460" as="targetPoint" />
            <Array as="points">
              <mxPoint x="-95" y="550" />
              <mxPoint x="170" y="550" />
              <mxPoint x="435" y="550" />
            </Array>
          </mxGeometry>
        </mxCell>
        <mxCell id="3YLsb2CkVtOYbldQvCIw-24" value="" style="endArrow=classic;html=1;rounded=1;entryX=0.75;entryY=1;entryDx=0;entryDy=0;" parent="1" target="3YLsb2CkVtOYbldQvCIw-7" edge="1">
          <mxGeometry width="50" height="50" relative="1" as="geometry">
            <mxPoint x="650" y="470" as="sourcePoint" />
            <mxPoint x="390" y="460" as="targetPoint" />
            <Array as="points">
              <mxPoint x="650" y="520" />
              <mxPoint x="488" y="520" />
            </Array>
          </mxGeometry>
        </mxCell>
        <mxCell id="3YLsb2CkVtOYbldQvCIw-25" value="&lt;font style=&quot;font-size: 20px;&quot;&gt;User information&lt;/font&gt;" style="text;html=1;align=center;verticalAlign=middle;resizable=0;points=[];autosize=1;strokeColor=none;fillColor=none;" parent="1" vertex="1">
          <mxGeometry x="485" y="485" width="170" height="40" as="geometry" />
        </mxCell>
        <mxCell id="3YLsb2CkVtOYbldQvCIw-26" value="&lt;font style=&quot;font-size: 20px;&quot;&gt;Cart information&lt;/font&gt;" style="text;html=1;align=center;verticalAlign=middle;resizable=0;points=[];autosize=1;strokeColor=none;fillColor=none;" parent="1" vertex="1">
          <mxGeometry x="225" y="475" width="170" height="40" as="geometry" />
        </mxCell>
        <mxCell id="3YLsb2CkVtOYbldQvCIw-27" value="" style="endArrow=classic;html=1;rounded=1;entryX=0.25;entryY=1;entryDx=0;entryDy=0;exitX=0.75;exitY=1;exitDx=0;exitDy=0;" parent="1" source="3YLsb2CkVtOYbldQvCIw-9" target="3YLsb2CkVtOYbldQvCIw-10" edge="1">
          <mxGeometry width="50" height="50" relative="1" as="geometry">
            <mxPoint x="340" y="510" as="sourcePoint" />
            <mxPoint x="390" y="460" as="targetPoint" />
            <Array as="points">
              <mxPoint x="748" y="520" />
              <mxPoint x="903" y="520" />
            </Array>
          </mxGeometry>
        </mxCell>
        <mxCell id="3YLsb2CkVtOYbldQvCIw-28" value="&lt;font style=&quot;font-size: 20px;&quot;&gt;User information&lt;/font&gt;" style="text;html=1;align=center;verticalAlign=middle;resizable=0;points=[];autosize=1;strokeColor=none;fillColor=none;" parent="1" vertex="1">
          <mxGeometry x="740" y="485" width="170" height="40" as="geometry" />
        </mxCell>
        <mxCell id="3YLsb2CkVtOYbldQvCIw-29" value="" style="endArrow=classic;html=1;entryX=0.75;entryY=1;entryDx=0;entryDy=0;exitX=0.617;exitY=1.026;exitDx=0;exitDy=0;exitPerimeter=0;rounded=1;jumpStyle=arc;jumpSize=16;" parent="1" source="3YLsb2CkVtOYbldQvCIw-7" target="3YLsb2CkVtOYbldQvCIw-10" edge="1">
          <mxGeometry width="50" height="50" relative="1" as="geometry">
            <mxPoint x="340" y="510" as="sourcePoint" />
            <mxPoint x="390" y="460" as="targetPoint" />
            <Array as="points">
              <mxPoint x="460" y="640" />
              <mxPoint x="1008" y="640" />
            </Array>
          </mxGeometry>
        </mxCell>
        <mxCell id="3YLsb2CkVtOYbldQvCIw-30" value="&lt;font style=&quot;font-size: 20px;&quot;&gt;Order information&lt;/font&gt;" style="text;html=1;align=center;verticalAlign=middle;resizable=0;points=[];autosize=1;strokeColor=none;fillColor=none;" parent="1" vertex="1">
          <mxGeometry x="690" y="605" width="180" height="40" as="geometry" />
        </mxCell>
        <mxCell id="3YLsb2CkVtOYbldQvCIw-33" value="&lt;font style=&quot;font-size: 20px;&quot;&gt;Products information&lt;/font&gt;" style="text;html=1;align=center;verticalAlign=middle;resizable=0;points=[];autosize=1;strokeColor=none;fillColor=none;" parent="1" vertex="1">
          <mxGeometry x="-60" y="550" width="210" height="40" as="geometry" />
        </mxCell>
        <mxCell id="3YLsb2CkVtOYbldQvCIw-35" value="&lt;font size=&quot;1&quot; style=&quot;&quot;&gt;&lt;span style=&quot;font-weight: normal; font-size: 22px;&quot;&gt;Microservices&lt;/span&gt;&lt;/font&gt;" style="text;html=1;strokeColor=none;fillColor=none;align=center;verticalAlign=middle;whiteSpace=wrap;rounded=0;fontStyle=1" parent="1" vertex="1">
          <mxGeometry x="380" y="730" width="150" height="30" as="geometry" />
        </mxCell>
        <mxCell id="FuZ4A8lElh-4JuRi-4fu-5" value="" style="verticalLabelPosition=bottom;shadow=0;dashed=0;align=center;html=1;verticalAlign=top;strokeWidth=1;shape=mxgraph.mockup.misc.shoppingCart;strokeColor=#006EAF;fillColor=#1ba1e2;fontColor=#ffffff;" vertex="1" parent="1">
          <mxGeometry x="90" y="300" width="80" height="70" as="geometry" />
        </mxCell>
        <mxCell id="FuZ4A8lElh-4JuRi-4fu-6" value="" style="verticalLabelPosition=bottom;html=1;verticalAlign=top;align=center;strokeColor=none;fillColor=#00BEF2;shape=mxgraph.azure.azure_marketplace;" vertex="1" parent="1">
          <mxGeometry x="-230" y="330" width="50" height="60" as="geometry" />
        </mxCell>
        <mxCell id="FuZ4A8lElh-4JuRi-4fu-7" value="" style="shape=image;html=1;verticalAlign=top;verticalLabelPosition=bottom;labelBackgroundColor=#ffffff;imageAspect=0;aspect=fixed;image=https://cdn3.iconfinder.com/data/icons/wanpix-black-friday/64/Artboard_10-128.png;rotation=-15;imageBackground=none;" vertex="1" parent="1">
          <mxGeometry x="290" y="290" width="128" height="128" as="geometry" />
        </mxCell>
        <mxCell id="FuZ4A8lElh-4JuRi-4fu-8" value="" style="sketch=0;outlineConnect=0;fontColor=#232F3E;gradientColor=none;fillColor=#232F3D;strokeColor=none;dashed=0;verticalLabelPosition=bottom;verticalAlign=top;align=center;html=1;fontSize=12;fontStyle=0;aspect=fixed;pointerEvents=1;shape=mxgraph.aws4.user;" vertex="1" parent="1">
          <mxGeometry x="746" y="316" width="54" height="54" as="geometry" />
        </mxCell>
        <mxCell id="FuZ4A8lElh-4JuRi-4fu-10" value="" style="shape=image;html=1;verticalAlign=top;verticalLabelPosition=bottom;labelBackgroundColor=#ffffff;imageAspect=0;aspect=fixed;image=https://cdn4.iconfinder.com/data/icons/48-bubbles/48/43.Bell-128.png;strokeWidth=0;rotation=20;" vertex="1" parent="1">
          <mxGeometry x="1000" y="310" width="60" height="60" as="geometry" />
        </mxCell>
      </root>
    </mxGraphModel>
  </diagram>
</mxfile>
